<svg version="1.0" xmlns="http://www.w3.org/2000/svg"
 width="800.000000pt" height="800.000000pt" viewBox="0 0 800.000000 800.000000"
 preserveAspectRatio="xMidYMid meet">

<g transform="translate(0.000000,800.000000) scale(0.100000,-0.100000)"
fill="#000000" stroke="none">
<path d="M3765 6241 c-66 -40 -121 -130 -155 -253 -51 -189 -52 -434 -3 -583
21 -65 96 -139 192 -189 l74 -39 69 34 c65 31 70 32 80 16 19 -34 71 -88 99
-103 37 -19 187 -18 259 1 30 8 56 15 57 15 1 0 0 -6 -3 -14 -4 -9 30 -35 105
-81 103 -61 136 -95 94 -95 -10 0 -193 18 -408 40 l-390 40 -55 -58 c-132
-139 -242 -262 -234 -262 5 0 53 -5 107 -10 254 -25 372 -91 524 -294 125
-167 185 -221 286 -256 45 -16 52 -22 55 -48 3 -24 -2 -31 -26 -41 -42 -17
-87 -68 -114 -126 -18 -40 -23 -68 -23 -136 0 -82 2 -89 47 -180 26 -52 58
-112 72 -134 l24 -39 27 55 28 56 58 -12 c33 -7 59 -10 59 -6 0 4 -34 107 -75
231 -41 123 -73 226 -70 228 9 10 244 -19 320 -39 164 -43 266 -103 465 -275
68 -59 157 -129 197 -155 91 -59 220 -106 343 -124 178 -27 276 -17 492 51 60
19 121 34 134 34 14 0 67 -22 117 -49 129 -69 177 -81 324 -81 l123 0 0 -287
c0 -159 5 -304 10 -324 5 -19 24 -48 41 -65 29 -28 34 -29 144 -32 63 -2 139
1 169 8 79 16 168 64 212 113 l38 42 -168 3 -169 2 -47 35 c-82 60 -120 109
-120 155 0 62 19 136 63 239 43 104 67 182 67 221 0 22 -8 28 -52 44 -68 23
-127 63 -156 106 -20 30 -23 44 -20 95 4 50 12 73 53 140 51 82 95 189 95 229
0 16 62 94 196 247 108 123 204 232 214 242 16 18 19 17 63 -13 26 -17 54 -41
62 -53 20 -28 20 -121 0 -177 -20 -58 -20 -60 20 -60 31 0 38 5 52 35 17 35
17 36 33 15 16 -21 16 -21 58 12 24 19 53 54 67 82 22 44 25 63 25 160 0 177
-31 206 -217 206 -165 -1 -199 -23 -308 -204 -98 -161 -210 -251 -329 -263
l-51 -5 -25 51 c-27 59 -97 129 -159 161 -24 12 -113 44 -199 72 -86 27 -171
59 -189 70 -18 10 -125 136 -240 279 -114 143 -212 258 -218 255 -7 -2 -12 8
-12 25 0 41 -45 85 -116 111 l-58 21 26 28 c43 44 31 61 -55 82 -41 9 -113 27
-159 39 l-84 22 31 26 c18 15 32 30 32 33 0 4 -27 7 -61 7 -50 0 -60 3 -55 15
3 8 9 21 12 29 10 24 -83 26 -124 2 l-34 -19 16 31 c21 41 21 42 -19 42 -32 0
-35 2 -35 30 0 17 -2 30 -5 30 -26 0 -93 -52 -149 -114 -37 -42 -72 -76 -78
-76 -5 0 -29 14 -53 31 -42 31 -47 31 -127 27 -65 -4 -95 -11 -137 -32 l-54
-28 -56 27 c-34 17 -116 40 -216 60 -167 34 -236 60 -256 96 -7 15 -10 66 -7
153 4 114 8 140 31 196 27 65 29 90 5 90 -7 -1 -58 -66 -113 -146 -92 -132
-102 -144 -125 -139 -83 20 -145 109 -185 267 -12 51 -27 94 -31 95 -5 2 -23
-5 -39 -16z"/>
<path d="M0 2485 l0 -745 205 0 205 0 0 185 0 185 222 0 c205 0 225 2 265 21
80 39 78 24 78 534 0 432 -1 451 -20 484 -11 19 -33 43 -48 55 -28 20 -39 21
-468 24 l-439 3 0 -746z m538 198 l-3 -368 -47 -3 -48 -3 0 370 0 371 50 0 50
0 -2 -367z"/>
<path d="M1117 3224 c-11 -11 -8 -1373 3 -1419 5 -22 17 -45 26 -52 14 -10
113 -13 437 -13 l419 0 33 33 c18 18 38 51 44 72 7 27 11 255 11 713 l0 672
-217 -2 -218 -3 0 -614 0 -614 -26 -19 c-26 -19 -28 -19 -63 -3 -20 10 -37 18
-38 19 -2 0 -5 278 -8 616 l-5 615 -196 3 c-107 1 -198 -1 -202 -4z"/>
<path d="M2286 3220 c-15 -5 -37 -17 -48 -27 -49 -44 -48 -27 -48 -763 l0
-690 220 0 220 0 0 655 0 655 50 0 50 0 0 -655 0 -655 220 0 220 0 0 655 0
655 50 0 50 0 0 -655 0 -655 220 0 220 0 0 693 c0 668 -1 693 -20 724 -43 72
-1 68 -725 70 -357 1 -663 -2 -679 -7z"/>
<path d="M3847 3224 c-4 -4 -7 -340 -7 -746 l0 -738 428 0 c400 0 429 1 458
19 65 40 65 40 62 550 l-3 460 -35 36 c-55 57 -131 76 -332 82 l-168 6 -2 166
-3 166 -196 3 c-107 1 -198 -1 -202 -4z m520 -574 c9 -19 13 -110 13 -356 0
-320 -1 -332 -21 -358 -26 -34 -62 -34 -88 0 -20 26 -21 38 -21 356 0 378 3
392 75 386 20 -2 34 -11 42 -28z"/>
<path d="M5005 3225 c-5 -2 -22 -6 -36 -9 -14 -3 -31 -17 -37 -31 -9 -19 -12
-215 -12 -735 l0 -710 205 0 205 0 0 163 c0 191 3 200 70 195 44 -3 45 -4 52
-43 4 -22 7 -102 7 -177 l1 -138 205 0 205 0 -2 720 -3 719 -23 23 -23 23
-402 2 c-221 1 -406 0 -412 -2z m440 -205 c14 -26 15 -77 13 -364 -3 -312 -4
-335 -22 -355 -26 -29 -60 -26 -86 6 -20 26 -21 34 -18 368 3 376 3 375 64
375 27 0 36 -6 49 -30z"/>
</g>
</svg>
